<svg width="144" height="144" viewBox="0 0 144 144" fill="none" xmlns="http://www.w3.org/2000/svg">
<path d="M102.261 0C91.1125 0 80.6307 4.34323 72.7479 12.2261L72 12.9739L71.2521 12.2261C63.3693 4.34323 52.8875 0 41.7391 0C18.7246 0 0 18.7246 0 41.7391C0 52.8875 4.3409 63.3693 12.2307 71.2568L66.2632 125.066C68.4325 127.229 69.6774 130.227 69.6774 133.291V144H74.3226V133.291C74.3226 129.001 72.5806 124.806 69.5427 121.778L15.5102 67.968C8.50297 60.9608 4.64516 51.6449 4.64516 41.7391C4.64516 21.2865 21.2841 4.64516 41.7391 4.64516C51.6472 4.64516 60.9608 8.50529 67.968 15.5125L72 19.5422L76.032 15.5102C83.0392 8.50529 92.3551 4.64516 102.261 4.64516C122.716 4.64516 139.355 21.2841 139.355 41.7368C139.355 51.6449 135.497 60.9608 128.49 67.9657L89.9837 106.474C88.2511 108.207 85.9471 109.161 83.4968 109.161C78.4382 109.161 74.3226 105.046 74.3226 99.9871V72H81.2903C103.062 72 120.774 54.288 120.774 32.5161V30.1935H109.161C92.0299 30.1935 77.4534 41.1817 72 56.4643C66.5466 41.1817 51.9701 30.1935 34.8387 30.1935H23.2258V32.5161C23.2258 54.288 40.9378 72 62.7097 72H69.6774V99.9871C69.6774 107.607 75.8764 113.806 83.4968 113.806C87.1874 113.806 90.6573 112.369 93.2679 109.758L131.774 71.2498C139.659 63.3693 144 52.8875 144 41.7368C144 18.7246 125.275 0 102.261 0ZM109.161 34.8387H116.052C114.852 52.9688 99.72 67.3548 81.2903 67.3548H74.3992C75.6 49.2248 90.7316 34.8387 109.161 34.8387ZM62.7097 67.3548C44.28 67.3548 29.1484 52.9688 27.9476 34.8387H34.8387C53.2684 34.8387 68.4 49.2248 69.6008 67.3548H62.7097Z" fill="#212121"/>
</svg>
