<svg width="191" height="100" viewBox="0 0 191 100" fill="none" xmlns="http://www.w3.org/2000/svg">
<path d="M161.554 0.79364V99.2063" stroke="#ECD8BD" stroke-linecap="round"/>
<path d="M45.3625 76.9884H188.621" stroke="#ECD8BD" stroke-linecap="round"/>
<path d="M74.1398 12.2222C76.7502 12.2222 78.7557 12.709 80.1563 13.6825C81.5782 14.6349 82.2892 16.2964 82.2892 18.6667C82.2892 20.2751 81.8117 21.6825 80.8567 22.8889C79.9017 24.0952 78.6177 24.9524 77.0048 25.4603L77.2595 25.5873C78.0023 25.9048 78.7132 26.5503 79.3923 27.5238C80.0715 28.4973 80.846 29.7778 81.7162 31.3651C82.374 32.5291 82.8728 33.3862 83.2123 33.9365C83.5732 34.4656 83.902 34.7619 84.1992 34.8254L85.95 35.2381V36.5079H81.5888C81.313 36.5079 81.0052 36.2329 80.6657 35.6825C80.3262 35.1111 79.838 34.1694 79.2013 32.8571C78.1402 30.656 77.1852 28.9418 76.3363 27.7143C75.4875 26.4868 74.5855 25.9154 73.6305 26C73.0575 26.0211 72.1237 26.0318 70.8292 26.0318V34.8254L74.108 35.2381V36.5079H65.0037V35.2381L67.996 34.8254V14.254L65.3857 14.0318V12.4445H69.3967C69.8212 12.4445 70.3517 12.4127 70.9883 12.3492C72.1768 12.2646 73.2273 12.2222 74.1398 12.2222ZM73.726 13.7778C73.5562 13.7989 73.2803 13.8095 72.8983 13.8095C71.9008 13.8519 71.2112 13.9259 70.8292 14.0318V24.381C71.4022 24.4445 72.4102 24.4762 73.8533 24.4762C75.6148 24.4762 76.973 24.0211 77.928 23.1111C78.883 22.1798 79.3605 20.8043 79.3605 18.9841C79.3605 17.2487 78.9255 15.9259 78.0553 15.0159C77.1852 14.1058 75.7422 13.6931 73.726 13.7778ZM98.7895 18.6349C100.678 18.5925 102.164 19.1852 103.246 20.4127C104.328 21.6402 104.87 23.3333 104.87 25.4921C104.87 26.2329 104.806 27.0476 104.679 27.9365H92.9958C92.9958 30.0952 93.5158 31.7989 94.5557 33.0476C95.6168 34.2964 97.1237 34.9206 99.076 34.9206C99.925 34.9206 100.816 34.8254 101.75 34.6349C102.684 34.4233 103.384 34.1798 103.851 33.9048L104.392 35.1429C103.798 35.6719 102.885 36.0952 101.654 36.4127C100.445 36.7302 99.2247 36.8889 97.9937 36.8889C95.532 36.8889 93.6113 36.0846 92.2318 34.4762C90.8737 32.8465 90.1945 30.656 90.1945 27.9048C90.1945 26.1481 90.5553 24.5821 91.2768 23.2064C92.0197 21.8095 93.0383 20.7091 94.3328 19.9048C95.6487 19.1005 97.1342 18.6773 98.7895 18.6349ZM98.0573 20.1905C96.7203 20.1905 95.585 20.6984 94.6512 21.7143C93.7387 22.7091 93.1975 24.2116 93.0277 26.2222H101.909C101.93 26.0106 101.941 25.6932 101.941 25.2698C101.941 22.963 101.347 21.4497 100.158 20.7302C99.6067 20.3703 98.9063 20.1905 98.0573 20.1905ZM109.344 20.6984V19.1746H116.125V20.6984L114.088 20.9841L117.685 29.7143L119.149 34.0635L120.55 29.9048L123.701 20.9841L121.632 20.6984V19.1746H127.808V20.6984L126.057 21.0159L119.754 36.8889H117.78L110.904 20.9524L109.344 20.6984ZM139.429 18.8571C141.318 18.8571 142.814 19.2805 143.917 20.127C145.021 20.9735 145.573 22.4445 145.573 24.5397L145.541 35.2381H147.514V36.2222C147.154 36.4127 146.719 36.5608 146.209 36.6667C145.7 36.7937 145.18 36.8571 144.649 36.8571C143.949 36.8571 143.482 36.7091 143.249 36.4127C143.037 36.1164 142.93 35.5662 142.93 34.7619C141.742 36.1798 139.97 36.8889 137.614 36.8889C136.659 36.8889 135.789 36.6878 135.004 36.2857C134.219 35.8624 133.603 35.291 133.158 34.5714C132.712 33.8306 132.489 33.0052 132.489 32.0952C132.489 30.6773 133.041 29.5344 134.144 28.6667C135.248 27.7778 136.585 27.1429 138.155 26.7619C139.726 26.381 141.265 26.1905 142.771 26.1905V24.8571C142.771 23.291 142.4 22.2222 141.657 21.6508C140.914 21.0583 139.832 20.7619 138.41 20.7619C137.731 20.7619 136.946 20.8889 136.054 21.1429C135.163 21.3757 134.389 21.6719 133.731 22.0318L133.189 20.6984C133.89 20.127 134.866 19.6825 136.118 19.3651C137.391 19.0265 138.495 18.8571 139.429 18.8571ZM142.771 27.6825C140.904 27.6825 139.185 27.9894 137.614 28.6032C136.065 29.217 135.29 30.2222 135.29 31.6191C135.29 33.9048 136.564 35.0476 139.11 35.0476C139.811 35.0476 140.501 34.8995 141.18 34.6032C141.859 34.2857 142.379 33.9576 142.739 33.6191L142.771 27.6825Z" fill="#F7F7F7"/>
<path d="M6.95554 52.9365C7.48609 52.9365 7.96359 52.9789 8.38804 53.0635C8.81249 53.1376 9.26346 53.2434 9.74096 53.381L10.1866 53.4921L10.0593 55.7143H9.29529L8.91329 54.381C8.58434 54.1694 8.23417 54.0159 7.86279 53.9207C7.50201 53.8254 7.05104 53.7778 6.50987 53.7778C5.73526 53.7778 5.01371 53.9841 4.34521 54.3968C3.68732 54.8095 3.15676 55.4127 2.75354 56.2064C2.36092 57 2.16462 57.9313 2.16462 59C2.16462 60.0053 2.33441 60.9313 2.67396 61.7778C3.01351 62.6138 3.51224 63.2805 4.17012 63.7778C4.83862 64.2751 5.63446 64.5238 6.55762 64.5238C7.79912 64.5238 8.66392 64.2275 9.15204 63.6349L9.56587 62.3968H10.2025V64.5873C10.0646 64.598 9.90012 64.6297 9.70912 64.6826C9.51812 64.7354 9.38549 64.7726 9.31121 64.7937C8.83371 64.9524 8.36151 65.0741 7.89462 65.1587C7.43834 65.254 6.88657 65.3016 6.23929 65.3016C5.17817 65.3016 4.22317 65.0529 3.37429 64.5556C2.52541 64.0583 1.86221 63.3651 1.38471 62.4762C0.907207 61.5873 0.668457 60.5767 0.668457 59.4445C0.668457 58.164 0.954957 57.0318 1.52796 56.0476C2.10096 55.0529 2.86496 54.2857 3.81996 53.7461C4.78557 53.2064 5.83076 52.9365 6.95554 52.9365ZM21.5265 52.9365C22.5346 52.9365 23.4153 53.1905 24.1686 53.6984C24.9326 54.1957 25.5163 54.8889 25.9195 55.7778C26.3333 56.656 26.5402 57.656 26.5402 58.7778C26.5402 60.1218 26.2962 61.2857 25.808 62.2699C25.32 63.254 24.6568 64.0053 23.8185 64.5238C22.9803 65.0424 22.0517 65.3016 21.033 65.3016C19.9932 65.3016 19.0753 65.0476 18.2795 64.5397C17.4943 64.0318 16.8842 63.3334 16.449 62.4445C16.0247 61.5449 15.8124 60.5291 15.8124 59.3968C15.8124 58.0424 16.0777 56.8678 16.6082 55.873C17.1494 54.8783 17.8656 54.1322 18.757 53.6349C19.6059 53.1694 20.5291 52.9365 21.5265 52.9365ZM21.24 53.7143C20.4654 53.7143 19.7863 53.9365 19.2026 54.381C18.6296 54.8148 18.184 55.4497 17.8656 56.2857C17.5473 57.1111 17.3881 58.0953 17.3881 59.2381C17.3881 60.1905 17.542 61.0687 17.8497 61.873C18.168 62.6773 18.6191 63.3227 19.2026 63.8095C19.7969 64.2857 20.4866 64.5238 21.2718 64.5238C22.0358 64.5238 22.6938 64.3016 23.2455 63.8572C23.8079 63.4127 24.2377 62.7726 24.5347 61.9365C24.8319 61.1005 24.9804 60.1111 24.9804 58.9683C24.9804 58.0265 24.8319 57.1535 24.5347 56.3492C24.2482 55.5449 23.8185 54.9048 23.2455 54.4286C22.6831 53.9524 22.0146 53.7143 21.24 53.7143ZM36.0869 65.254C35.3654 65.254 34.6544 65.1853 33.954 65.0476C33.2537 64.8995 32.7762 64.7513 32.5215 64.6032V62.1587H33.1741L33.6357 63.7143C33.9222 64.0107 34.2989 64.2222 34.7658 64.3492C35.2328 64.4656 35.7314 64.5238 36.2619 64.5238C36.9411 64.5238 37.5248 64.3492 38.0128 64C38.5116 63.6402 38.7609 63.1059 38.7609 62.3968C38.7609 61.9735 38.6283 61.598 38.3629 61.2699C38.1083 60.9313 37.7899 60.6349 37.4079 60.381C37.0259 60.127 36.5114 59.8254 35.864 59.4762C35.1744 59.1164 34.6066 58.7884 34.1609 58.4921C33.7153 58.1853 33.3439 57.8202 33.0468 57.3968C32.7498 56.9735 32.6011 56.4868 32.6011 55.9365C32.6011 55.2592 32.7921 54.6984 33.1741 54.254C33.5668 53.7989 34.0495 53.4656 34.6225 53.254C35.1955 53.0424 35.7739 52.9365 36.3574 52.9365C37.0578 52.9365 37.668 53 38.1879 53.127C38.7079 53.2434 39.1058 53.381 39.3816 53.5397V55.6667H38.7449L38.1879 54.1587C37.9969 53.9894 37.7263 53.8624 37.3761 53.7778C37.0366 53.6932 36.6653 53.6508 36.2619 53.6508C35.9118 53.6508 35.5564 53.7195 35.1955 53.8572C34.8349 53.9948 34.527 54.217 34.2724 54.5238C34.0284 54.8307 33.9063 55.2222 33.9063 55.6984C33.9063 56.2487 34.1345 56.7249 34.5907 57.127C35.0577 57.5186 35.7314 57.9365 36.6121 58.381C37.3761 58.783 37.9864 59.1322 38.4425 59.4286C38.8989 59.7249 39.2861 60.09 39.6044 60.5238C39.9334 60.9472 40.0979 61.4392 40.0979 62C40.0979 63.09 39.7213 63.9048 38.9678 64.4445C38.2144 64.9841 37.2542 65.254 36.0869 65.254ZM46.9992 64.2381L47.7632 53.9524L46.2352 53.8254V53.0476H49.7368L52.6178 61.6667L52.9679 62.8095L53.3181 61.6508L56.0558 53.0476H59.2868V53.8254L57.8066 53.9524L58.6979 64.2381L60.0986 64.4445V65.0794H56.008V64.4445L57.3768 64.2381L56.7083 56.7778L56.6288 54.0953L56.2786 55.4445L52.9998 65.1905H52.5063L49.4503 56.5238C49.2698 56.0159 48.9888 55.1905 48.6068 54.0476L48.5272 56.8254L48.1293 64.2381L49.6732 64.4445V65.0794H45.6303V64.4445L46.9992 64.2381ZM66.6693 64.2381V53.8889L65.3641 53.7619V53.0476H73.4498L73.6726 55.2699H72.8609L72.4948 53.9048L68.07 53.8095V58.381L71.0464 58.3175L71.2692 57.0953H72.0173V60.4286H71.2692L71.0464 59.1905L68.07 59.1429V64.2857L72.8291 64.1587L73.5931 62.4921L74.2934 62.6667L73.9432 65.0794H65.3323V64.4445L66.6693 64.2381ZM83.3107 64.2381V53.8413L80.3502 54L79.8408 55.3968L79.1723 55.4127L79.3633 53.0476H88.6268L88.6109 55.4445L88.022 55.508L87.64 53.9841L84.7272 53.8413V64.2381L86.7805 64.4445V65.0794H81.3529V64.4445L83.3107 64.2381ZM99.3876 52.9365C100.396 52.9365 101.276 53.1905 102.03 53.6984C102.794 54.1957 103.377 54.8889 103.781 55.7778C104.194 56.656 104.401 57.656 104.401 58.7778C104.401 60.1218 104.157 61.2857 103.669 62.2699C103.181 63.254 102.518 64.0053 101.68 64.5238C100.841 65.0424 99.9129 65.3016 98.8942 65.3016C97.8544 65.3016 96.9364 65.0476 96.1406 64.5397C95.3554 64.0318 94.7452 63.3334 94.3102 62.4445C93.8857 61.5449 93.6735 60.5291 93.6735 59.3968C93.6735 58.0424 93.9389 56.8678 94.4694 55.873C95.0105 54.8783 95.7268 54.1322 96.6181 53.6349C97.4669 53.1694 98.3901 52.9365 99.3876 52.9365ZM99.1011 53.7143C98.3264 53.7143 97.6474 53.9365 97.0638 54.381C96.4908 54.8148 96.0451 55.4497 95.7268 56.2857C95.4084 57.1111 95.2493 58.0953 95.2493 59.2381C95.2493 60.1905 95.4032 61.0687 95.7109 61.873C96.0292 62.6773 96.4801 63.3227 97.0638 63.8095C97.6579 64.2857 98.3478 64.5238 99.1329 64.5238C99.8969 64.5238 100.555 64.3016 101.107 63.8572C101.669 63.4127 102.099 62.7726 102.396 61.9365C102.693 61.1005 102.842 60.1111 102.842 58.9683C102.842 58.0265 102.693 57.1535 102.396 56.3492C102.109 55.5449 101.68 54.9048 101.107 54.4286C100.544 53.9524 99.8758 53.7143 99.1011 53.7143ZM111.354 64.2381V53.9524L110.048 53.8413V53.0476H114.187V53.8413L112.77 53.9524L112.754 64.2699L117.068 64.0953L117.991 62.2222L118.643 62.5397L118.134 65.0794H110.017V64.4445L111.354 64.2381ZM129.41 52.9365C130.418 52.9365 131.299 53.1905 132.052 53.6984C132.816 54.1957 133.4 54.8889 133.803 55.7778C134.217 56.656 134.424 57.656 134.424 58.7778C134.424 60.1218 134.18 61.2857 133.691 62.2699C133.203 63.254 132.54 64.0053 131.702 64.5238C130.863 65.0424 129.935 65.3016 128.916 65.3016C127.877 65.3016 126.959 65.0476 126.163 64.5397C125.378 64.0318 124.767 63.3334 124.332 62.4445C123.908 61.5449 123.696 60.5291 123.696 59.3968C123.696 58.0424 123.961 56.8678 124.492 55.873C125.033 54.8783 125.749 54.1322 126.64 53.6349C127.489 53.1694 128.412 52.9365 129.41 52.9365ZM129.123 53.7143C128.349 53.7143 127.67 53.9365 127.086 54.381C126.513 54.8148 126.067 55.4497 125.749 56.2857C125.431 57.1111 125.271 58.0953 125.271 59.2381C125.271 60.1905 125.425 61.0687 125.733 61.873C126.051 62.6773 126.502 63.3227 127.086 63.8095C127.68 64.2857 128.37 64.5238 129.155 64.5238C129.919 64.5238 130.577 64.3016 131.129 63.8572C131.691 63.4127 132.121 62.7726 132.418 61.9365C132.715 61.1005 132.864 60.1111 132.864 58.9683C132.864 58.0265 132.715 57.1535 132.418 56.3492C132.132 55.5449 131.702 54.9048 131.129 54.4286C130.566 53.9524 129.898 53.7143 129.123 53.7143ZM146.119 52.9365C146.84 52.9365 147.451 52.9789 147.949 53.0635C148.448 53.1481 148.841 53.2275 149.127 53.3016C149.414 53.3757 149.594 53.4233 149.668 53.4445L149.541 55.6508H148.777L148.395 54.3334C148.268 54.1957 147.96 54.0688 147.472 53.9524C146.994 53.8254 146.4 53.7672 145.689 53.7778C144.915 53.7884 144.193 54.0053 143.525 54.4286C142.867 54.8413 142.341 55.4445 141.949 56.2381C141.556 57.0211 141.36 57.9418 141.36 59C141.36 59.9735 141.519 60.8837 141.837 61.7302C142.156 62.5662 142.633 63.2433 143.27 63.7619C143.917 64.2699 144.702 64.5238 145.626 64.5238C146.167 64.5238 146.676 64.4656 147.154 64.3492C147.642 64.2222 148.018 64.0159 148.284 63.7302V60.4286L146.326 60.3016V59.5873H150.687V60.3016L149.7 60.4445V64.4603C149.562 64.471 149.366 64.5132 149.111 64.5873C148.867 64.6508 148.708 64.6932 148.634 64.7143C147.923 64.9048 147.318 65.0476 146.819 65.1429C146.331 65.2487 145.822 65.3016 145.291 65.3016C144.241 65.3016 143.302 65.0529 142.474 64.5556C141.657 64.0476 141.02 63.3492 140.564 62.4603C140.108 61.5714 139.88 60.5662 139.88 59.4445C139.88 58.1535 140.161 57.0159 140.723 56.0318C141.286 55.0476 142.039 54.2857 142.983 53.7461C143.938 53.2064 144.984 52.9365 146.119 52.9365Z" fill="#F7F7F7"/>
<path d="M4.32927 34.8254V14.127L1.71894 13.873V12.4445H5.72994C6.72739 12.4445 7.88399 12.4021 9.19977 12.3175C9.45444 12.2963 9.83644 12.2751 10.3458 12.254C10.8763 12.2328 11.3538 12.2222 11.7783 12.2222C15.6407 12.2222 18.5376 13.2381 20.4688 15.2698C22.3999 17.3016 23.3656 20.1587 23.3656 23.8413C23.3656 26.4445 22.8456 28.7195 21.8058 30.6667C20.7659 32.5925 19.3334 34.0741 17.5083 35.1111C15.6832 36.1481 13.614 36.6667 11.3008 36.6667C10.8551 36.6667 10.0593 36.6456 8.91327 36.6032C7.91582 36.5397 6.87594 36.5079 5.79361 36.5079H1.65527V35.2381L4.32927 34.8254ZM7.16244 34.6349C8.45699 34.9313 9.76216 35.0794 11.0779 35.0794C12.7969 35.0794 14.3568 34.6984 15.7574 33.9365C17.1793 33.1746 18.3041 32.0106 19.1318 30.4445C19.9806 28.8571 20.4051 26.8995 20.4051 24.5714C20.4051 21.0583 19.5881 18.3916 17.9539 16.5714C16.3411 14.7513 14.0809 13.8413 11.1734 13.8413C9.62422 13.8413 8.28722 13.9471 7.16244 14.1587V34.6349Z" fill="#F7F7F7"/>
<path d="M32.9474 34.9524V22.0317L30.6872 20.9524V20.0317L34.6982 18.8889L35.3986 19.2063V21.5238C35.8231 20.91 36.5976 20.3174 37.7224 19.746C38.8684 19.1535 39.9082 18.8571 40.8421 18.8571C41.6061 18.8571 42.1154 18.8889 42.3701 18.9524V21.9047C41.9032 21.7354 41.4894 21.619 41.1286 21.5555C40.7891 21.4709 40.3221 21.4285 39.7279 21.4285C38.2636 21.4285 36.9372 21.8201 35.7487 22.6031V34.9206L40.2691 35.2698V36.5079H30.3689V35.2698L32.9474 34.9524ZM48.583 33.0158C49.156 33.0158 49.5911 33.1852 49.8881 33.5238C50.1853 33.8412 50.3338 34.2433 50.3338 34.7301C50.3338 35.3439 50.1216 35.8412 49.6971 36.2222C49.2728 36.6031 48.774 36.7936 48.201 36.7936C47.7341 36.7936 47.3203 36.6349 46.9595 36.3174C46.62 36 46.4501 35.5979 46.4501 35.1111C46.4501 34.5397 46.673 34.0528 47.1186 33.6508C47.5643 33.2274 48.0525 33.0158 48.583 33.0158Z" fill="#F7F7F7"/>
</svg>
