<svg width="144" height="144" viewBox="0 0 144 144" fill="none" xmlns="http://www.w3.org/2000/svg">
<path d="M72 60V36" stroke="#ECD8BD" stroke-width="4" stroke-linecap="round" stroke-linejoin="round"/>
<path d="M67.2 40.8L72 36" stroke="#ECD8BD" stroke-width="4" stroke-linecap="round" stroke-linejoin="round"/>
<path d="M74.5439 3.26401L83.3759 10.032C84.168 10.649 85.1577 10.9561 86.1599 10.896L97.4399 10.368C98.3573 10.3148 99.2661 10.5692 100.023 11.0909C100.779 11.6125 101.34 12.3717 101.616 13.248L104.544 23.712C104.829 24.6352 105.444 25.4211 106.272 25.92L115.872 31.872C116.688 32.3293 117.3 33.0789 117.585 33.9696C117.87 34.8604 117.807 35.826 117.408 36.672L113.28 46.608C112.945 47.5058 112.945 48.4942 113.28 49.392L117.312 59.52C117.711 60.366 117.774 61.3317 117.489 62.2224C117.204 63.1132 116.592 63.8627 115.776 64.32L106.176 70.272C105.348 70.7709 104.733 71.5569 104.448 72.48L101.52 82.944C101.244 83.8204 100.683 84.5795 99.9265 85.1012C99.1701 85.6228 98.2613 85.8772 97.3439 85.824L86.3999 85.104C85.3977 85.0439 84.408 85.351 83.6159 85.968L74.7839 92.736C74.0543 93.2965 73.16 93.6004 72.2399 93.6004C71.3199 93.6004 70.4256 93.2965 69.6959 92.736L60.8639 85.968C60.0719 85.351 59.0821 85.0439 58.0799 85.104L46.7999 85.632C45.8826 85.6852 44.9738 85.4308 44.2174 84.9092C43.4609 84.3875 42.9002 83.6284 42.6239 82.752L39.6959 72.288C39.4105 71.3649 38.7954 70.5789 37.9679 70.08L28.3679 64.128C27.5437 63.6787 26.9213 62.9326 26.6271 62.0411C26.333 61.1497 26.389 60.1796 26.7839 59.328L30.8159 49.2C31.1507 48.3022 31.1507 47.3138 30.8159 46.416L26.6879 36.48C26.293 35.6284 26.237 34.6584 26.5311 33.7669C26.8253 32.8754 27.4477 32.1293 28.2719 31.68L37.8719 25.728C38.6994 25.2291 39.3145 24.4432 39.5999 23.52L42.5279 13.056C42.8042 12.1797 43.3649 11.4205 44.1214 10.8989C44.8778 10.3772 45.7866 10.1228 46.7039 10.176L57.9839 10.704C58.9861 10.7641 59.9759 10.457 60.7679 9.84001L69.4559 3.26401C70.1856 2.70351 71.0799 2.39966 71.9999 2.39966C72.92 2.39966 73.8143 2.70351 74.5439 3.26401V3.26401Z" stroke="#ECD8BD" stroke-width="5" stroke-linecap="round" stroke-linejoin="round"/>
<path d="M71.9999 69.5999C83.9293 69.5999 93.5999 59.9293 93.5999 47.9999C93.5999 36.0706 83.9293 26.3999 71.9999 26.3999C60.0706 26.3999 50.3999 36.0706 50.3999 47.9999C50.3999 59.9293 60.0706 69.5999 71.9999 69.5999Z" stroke="#ECD8BD" stroke-width="4" stroke-linecap="round" stroke-linejoin="round"/>
<path d="M141.6 122.4L104.64 72" stroke="#ECD8BD" stroke-width="4" stroke-linecap="round" stroke-linejoin="round"/>
<path d="M141.6 122.4L108 117.6" stroke="#ECD8BD" stroke-width="4" stroke-linecap="round" stroke-linejoin="round"/>
<path d="M93.5999 141.6L108 117.6" stroke="#ECD8BD" stroke-width="4" stroke-linecap="round" stroke-linejoin="round"/>
<path d="M93.6 141.6L81.408 87.8401" stroke="#ECD8BD" stroke-width="4" stroke-linecap="round" stroke-linejoin="round"/>
<path d="M2.3999 122.4L39.3599 72" stroke="#ECD8BD" stroke-width="4" stroke-linecap="round" stroke-linejoin="round"/>
<path d="M2.3999 122.4L35.9999 117.6" stroke="#ECD8BD" stroke-width="4" stroke-linecap="round" stroke-linejoin="round"/>
<path d="M50.4 141.6L36 117.6" stroke="#ECD8BD" stroke-width="4" stroke-linecap="round" stroke-linejoin="round"/>
<path d="M50.3999 141.6L62.5919 87.8401" stroke="#ECD8BD" stroke-width="4" stroke-linecap="round" stroke-linejoin="round"/>
</svg>
