<svg width="124" height="144" viewBox="0 0 124 144" fill="none" xmlns="http://www.w3.org/2000/svg">
<path d="M18.6876 81.7172C18.6876 80.4479 17.659 79.4194 16.3897 79.4194H10.3956H5.10038V17.4834C5.10038 10.3772 10.8818 4.59574 17.9884 4.59574H83.2333C90.3395 4.59574 96.1209 10.3772 96.1209 17.4834V105.176C96.1209 106.446 97.1495 107.474 98.4188 107.474C99.6885 107.474 100.717 106.445 100.717 105.176V17.4834C100.717 7.8431 92.8739 0 83.2333 0H17.9884C8.34774 0 0.504639 7.8431 0.504639 17.4834V81.7169C0.504639 82.9863 1.53317 84.0148 2.80251 84.0148H16.3897C17.6584 84.0151 18.6866 82.9872 18.6876 81.7172Z" fill="#ECD8BD"/>
<path d="M121.197 112.07H98.4197H48.1652C46.8958 112.07 45.8673 113.098 45.8673 114.368V118.923C45.8673 121.843 43.4919 124.218 40.5724 124.218C39.3031 124.218 38.2745 125.247 38.2745 126.516C38.2745 127.786 39.3031 128.814 40.5724 128.814C46.0263 128.814 50.4631 124.377 50.4631 118.923V116.666H118.9V126.516C118.9 133.622 113.118 139.404 106.012 139.404H40.7667C33.6604 139.404 27.879 133.622 27.879 126.516V25.0764C27.879 19.6225 23.4422 15.1858 17.9883 15.1858C16.719 15.1858 15.6904 16.2143 15.6904 17.4837C15.6904 17.6013 15.7021 17.7159 15.7192 17.829C15.8862 18.9338 16.8369 19.7815 17.9883 19.7815C20.9078 19.7815 23.2832 22.1569 23.2832 25.0764V81.7184V126.516C23.2832 136.157 31.1263 144 40.7667 144H106.012C115.652 144 123.495 136.157 123.495 126.516V114.368C123.495 113.099 122.466 112.07 121.197 112.07Z" fill="#ECD8BD"/>
<path d="M83.0998 96.0601H40.9004C39.6311 96.0601 38.6025 97.0886 38.6025 98.3579C38.6025 99.6273 39.6311 100.656 40.9004 100.656H83.0998C84.3691 100.656 85.3976 99.6273 85.3976 98.3579C85.3976 97.0886 84.3691 96.0601 83.0998 96.0601Z" fill="#ECD8BD"/>
<path d="M83.0998 80.0498H40.9004C39.6311 80.0498 38.6025 81.0783 38.6025 82.3477C38.6025 83.617 39.6311 84.6455 40.9004 84.6455H83.0998C84.3691 84.6455 85.3976 83.617 85.3976 82.3477C85.3976 81.0783 84.3691 80.0498 83.0998 80.0498Z" fill="#ECD8BD"/>
<path d="M83.0998 64.0403H40.9004C39.6311 64.0403 38.6025 65.0688 38.6025 66.3382C38.6025 67.6075 39.6311 68.636 40.9004 68.636H83.0998C84.3691 68.636 85.3976 67.6075 85.3976 66.3382C85.3976 65.0688 84.3691 64.0403 83.0998 64.0403Z" fill="#ECD8BD"/>
<path d="M83.0998 48.03H40.9004C39.6311 48.03 38.6025 49.0586 38.6025 50.3279C38.6025 51.5972 39.6311 52.6258 40.9004 52.6258H83.0998C84.3691 52.6258 85.3976 51.5972 85.3976 50.3279C85.3976 49.0586 84.3691 48.03 83.0998 48.03Z" fill="#ECD8BD"/>
<path d="M81.1081 18.3079C81.1081 17.0385 80.0796 16.01 78.8102 16.01H36.6109C35.3415 16.01 34.313 17.0385 34.313 18.3079C34.313 19.5772 35.3415 20.6058 36.6109 20.6058H78.8102C80.0796 20.6058 81.1081 19.5769 81.1081 18.3079Z" fill="#ECD8BD"/>
<path d="M83.0998 32.02H40.9004C39.6311 32.02 38.6025 33.0485 38.6025 34.3179C38.6025 35.5872 39.6311 36.6158 40.9004 36.6158H83.0998C84.3691 36.6158 85.3976 35.5872 85.3976 34.3179C85.3976 33.0485 84.3691 32.02 83.0998 32.02Z" fill="#ECD8BD"/>
</svg>
