<svg width="144" height="144" viewBox="0 0 144 144" fill="none" xmlns="http://www.w3.org/2000/svg">
<path d="M124.65 87.8066C123.502 87.1345 122.033 87.5185 121.366 88.6635L93.8461 135.6C91.8582 139.04 87.4483 140.226 84.1136 138.301L78.7528 134.827C77.639 134.104 76.1527 134.421 75.4325 135.535C74.7098 136.647 75.0291 138.135 76.1406 138.855L81.6069 142.394C83.4916 143.484 85.5538 144 87.5895 144C91.7403 144 95.7783 141.852 97.9941 138.015L125.504 91.0903C126.174 89.9478 125.793 88.4762 124.65 87.8066Z" fill="#212121"/>
<path d="M131.912 0H93.5009C86.0731 0 80.5395 2.36462 74.9986 7.9055C74.0601 8.84432 74.0601 10.3616 74.9986 11.3001C75.9374 12.2389 77.4547 12.2389 78.3932 11.3001C83.0698 6.62346 87.307 4.80126 93.5009 4.80126H131.912C135.883 4.80126 139.114 8.03267 139.114 12.0034V50.4152C139.114 56.6116 137.292 60.8462 132.613 65.5228L61.3167 136.921C58.5943 139.638 53.8504 139.64 51.133 136.921L6.99553 92.783C5.63443 91.4219 4.88524 89.6141 4.88524 87.6886C4.88524 85.7657 5.63415 83.9578 6.993 82.599L71.4333 18.2502C72.4247 18.5023 73.4186 18.7543 74.4486 19.0303C84.2148 21.647 91.9212 24.3504 97.666 26.7631C96.5353 28.8565 95.9015 31.202 95.9015 33.6099C95.9015 41.554 102.362 48.0143 110.306 48.0143C118.25 48.0143 124.71 41.554 124.71 33.6099C124.71 25.6659 118.25 19.2056 110.306 19.2056C108.978 19.2056 107.905 20.2811 107.905 21.6062C107.905 22.9313 108.978 24.0068 110.306 24.0068C115.602 24.0068 119.909 28.3138 119.909 33.6096C119.909 38.9058 115.602 43.2124 110.306 43.2124C105.01 43.2124 100.703 38.9055 100.703 33.6096C100.703 31.8811 101.176 30.1934 102.048 28.7243C106.206 30.7144 108.805 32.3926 109.833 33.4633C109.394 33.5883 108.714 33.7275 107.689 33.8161C106.369 33.9337 105.392 35.0982 105.51 36.4185C105.62 37.6668 106.667 38.6104 107.898 38.6104C107.968 38.6104 108.04 38.6056 108.112 38.6008C109.588 38.4689 114.08 38.0727 114.944 34.8531C117.309 26.0209 82.6596 16.2595 75.6901 14.3917C65.0284 11.5347 54.7895 9.58057 46.855 8.88933C37.1057 8.03717 32.357 9.14619 31.464 12.4831C31.0367 14.0845 29.8965 18.336 49.3614 26.0111C50.5931 26.4983 51.9902 25.8935 52.4752 24.6595C52.9603 23.4256 52.3551 22.0308 51.1212 21.5457C41.7176 17.8366 37.8211 15.1189 36.5728 13.8394C39.533 12.9704 49.6568 13.2224 65.9602 16.929L3.60095 79.2022C1.33227 81.4709 0.0839844 84.4837 0.0839844 87.6886C0.0839844 90.8961 1.33227 93.9112 3.60095 96.1776L47.7381 140.315C50.002 142.581 53.0174 143.83 56.2223 143.83C59.4298 143.83 62.4426 142.581 64.7113 140.313L136.01 68.9174C141.553 63.3765 143.916 57.843 143.916 50.4152V12.0037C143.916 5.38474 138.531 0 131.912 0Z" fill="black"/>
<path d="M78.6044 63.1223C77.6659 62.1835 76.1483 62.1835 75.2098 63.1223L73.9134 64.4187C72.0144 63.1609 69.7483 62.419 67.3043 62.419C60.6856 62.419 55.3006 67.8037 55.3006 74.4227C55.3006 77.9999 56.7771 80.8278 58.0639 82.8948C59.2643 84.8225 60.1021 87.5689 60.1021 88.827C60.1021 92.7978 56.8707 96.0292 52.9 96.0292C48.9292 96.0292 45.6978 92.7978 45.6978 88.827C45.6978 87.3697 46.1322 85.9653 46.9534 84.7651C47.7023 83.6727 47.4216 82.1771 46.3291 81.4282C45.2345 80.6815 43.7411 80.9601 42.9922 82.0525C41.6213 84.0547 40.8963 86.3977 40.8963 88.8273C40.8963 91.2713 41.6382 93.5374 42.896 95.4364L41.5996 96.7328C40.6608 97.6713 40.6608 99.1889 41.5996 100.127C42.0678 100.596 42.6825 100.831 43.2969 100.831C43.9116 100.831 44.5261 100.596 44.9942 100.127L46.2906 98.831C48.1896 100.089 50.4558 100.831 52.8997 100.831C59.5184 100.831 64.9034 95.446 64.9034 88.827C64.9034 86.4889 63.7415 82.926 62.1401 80.3549C60.7118 78.0623 60.1019 76.2882 60.1019 74.4227C60.1019 70.4519 63.3333 67.2205 67.304 67.2205C69.2295 67.2205 70.9698 67.9888 72.2614 69.225C72.3022 69.2684 72.3166 69.3257 72.3574 69.3691C72.4007 69.4099 72.4581 69.4242 72.5014 69.465C73.7379 70.7566 74.5059 72.4972 74.5059 74.4224C74.5059 76.3476 73.7545 78.1602 72.3908 79.5238C71.452 80.4601 71.452 81.9799 72.3883 82.9184C73.3221 83.8572 74.8444 83.8547 75.7829 82.921C78.0541 80.6497 79.3072 77.6322 79.3072 74.4224C79.3072 71.9785 78.5653 69.7123 77.3074 67.8133L78.6038 66.5169C79.5432 65.5784 79.5432 64.0609 78.6044 63.1223Z" fill="black"/>
</svg>
