<svg width="42" height="28" viewBox="0 0 42 28" fill="none" xmlns="http://www.w3.org/2000/svg">
<path fill-rule="evenodd" clip-rule="evenodd" d="M2.82827 14.1421L14.142 2.82843L19.7278 8.41421L14.707 13.435C14.3164 13.8256 14.3164 14.4587 14.707 14.8492L19.7278 19.8701L14.142 25.4558L2.82827 14.1421ZM21.142 21.2843L14.8491 27.5772C14.4586 27.9677 13.8254 27.9677 13.4349 27.5772L0.706955 14.8492C0.31643 14.4587 0.31643 13.8256 0.706954 13.435L13.4349 0.707108C13.8254 0.316584 14.4586 0.316584 14.8491 0.707108L21.142 7L27.4349 0.707108C27.8254 0.316584 28.4586 0.316584 28.8491 0.707108L41.577 13.435C41.9675 13.8256 41.9675 14.4587 41.577 14.8492L28.8491 27.5772C28.4586 27.9677 27.8254 27.9677 27.4349 27.5772L21.142 21.2843ZM22.5562 8.41422L28.142 2.82843L39.4557 14.1421L28.142 25.4558L22.5562 19.8701L27.577 14.8492C27.9675 14.4587 27.9675 13.8256 27.577 13.435L22.5562 8.41422ZM21.142 9.82843L25.4557 14.1421L21.142 18.4558L16.8283 14.1421L21.142 9.82843Z" fill="#4F4F4F"/>
</svg>
