<svg width="40" height="40" viewBox="0 0 40 40" fill="none" xmlns="http://www.w3.org/2000/svg">
<path d="M39.967 31.4824C39.694 28.6474 36.4382 26.3727 36.0842 26.1348C35.734 25.8841 32.5822 23.6907 29.7902 23.6907C28.6104 23.6907 27.624 24.0585 26.8276 24.8142L26.7515 24.8962C25.8324 25.9723 23.9736 27.5643 22.9034 27.5643C22.8318 27.5643 22.7706 27.5561 22.715 27.538C22.1093 27.0926 19.115 24.8634 17.1328 22.8804C15.54 21.2876 12.9714 17.9483 12.4547 17.2716C12.1854 16.4032 13.7804 14.3531 15.1196 13.1952L15.1946 13.1214C18.1892 9.9582 14.0337 4.15547 13.8722 3.93391C13.7647 3.77352 11.2039 0 8.11973 0C7.05887 0 6.10098 0.413281 5.32356 1.18172C4.96356 1.47719 -3.43355 8.5318 1.63848 18.9115C1.89176 19.4323 2.20809 19.9567 2.63332 20.5633C3.87809 22.3411 7.10247 26.8047 10.1557 29.8575C13.0544 32.7566 17.5926 36.0572 19.4093 37.3411C20.0326 37.7822 20.5735 38.1087 21.1122 38.3714C23.335 39.4524 25.5776 40 27.7777 40C34.2575 40 38.2439 35.3566 38.7901 34.6799C39.6734 33.766 40.0804 32.6612 39.967 31.4824ZM37.6722 33.6384L37.6192 33.6823C37.2305 34.1709 33.6521 38.4402 27.7777 38.4402H27.7762C25.8104 38.4402 23.7931 37.9601 21.7807 36.9812C21.3185 36.7567 20.8455 36.4773 20.2915 36.0856C18.507 34.8241 14.0516 31.5896 11.236 28.7733C8.26825 25.8055 5.10645 21.4295 3.88481 19.6846C3.50622 19.1452 3.22903 18.6875 3.01153 18.2406C-1.45949 9.09039 5.48582 3.02484 6.34379 2.31664C6.88395 1.78547 7.46473 1.52766 8.11973 1.52766C10.0095 1.52766 11.9962 3.87844 12.6191 4.80805C13.6266 6.19422 15.854 10.2022 14.09 12.0665C13.9236 12.2105 10.0236 15.6162 11.0868 17.9655L11.1748 18.1132C11.49 18.5273 14.3049 22.2135 16.0525 23.9607C18.2219 26.1302 21.5206 28.5578 21.8899 28.8279L22.0208 28.9047C22.2905 29.0293 22.5878 29.092 22.9042 29.092C25.1509 29.092 27.8016 26.019 27.9082 25.8937C28.3812 25.4453 29.0143 25.2185 29.7902 25.2185C32.1462 25.2185 35.0726 27.2895 35.2129 27.3895C35.2431 27.4097 38.2366 29.4538 38.4458 31.6286C38.5178 32.3769 38.2649 33.0341 37.6722 33.6384Z" fill="#ECD8BD"/>
</svg>
