<svg width="40" height="40" viewBox="0 0 40 40" fill="none" xmlns="http://www.w3.org/2000/svg">
<path d="M26.7999 3.2002H13.2C7.6771 3.2002 3.19995 7.67735 3.19995 13.2002V26.8002C3.19995 32.323 7.6771 36.8002 13.2 36.8002H26.7999C32.3228 36.8002 36.7999 32.323 36.7999 26.8002V13.2002C36.7999 7.67735 32.3228 3.2002 26.7999 3.2002Z" stroke="#ECD8BD" stroke-width="2" stroke-linecap="round" stroke-linejoin="round"/>
<path d="M20.0001 27.4626C24.1215 27.4626 27.4626 24.1215 27.4626 20.0001C27.4626 15.8787 24.1215 12.5376 20.0001 12.5376C15.8787 12.5376 12.5376 15.8787 12.5376 20.0001C12.5376 24.1215 15.8787 27.4626 20.0001 27.4626Z" stroke="#ECD8BD" stroke-width="2" stroke-linecap="round" stroke-linejoin="round"/>
<path d="M29.175 12.5376C30.3487 12.5376 31.3001 11.5862 31.3001 10.4126C31.3001 9.23899 30.3487 8.2876 29.175 8.2876C28.0014 8.2876 27.05 9.23899 27.05 10.4126C27.05 11.5862 28.0014 12.5376 29.175 12.5376Z" stroke="#ECD8BD" stroke-width="2" stroke-linecap="round" stroke-linejoin="round"/>
</svg>
