<svg width="144" height="144" viewBox="0 0 144 144" fill="none" xmlns="http://www.w3.org/2000/svg">
<path d="M71.8968 40.7839C54.6913 40.7839 40.6926 54.7826 40.6926 71.9881C40.6926 89.1936 54.6913 103.192 71.8968 103.192C89.1023 103.192 103.101 89.1936 103.101 71.9881C103.101 54.7826 89.1023 40.7839 71.8968 40.7839ZM71.8968 98.3916C57.3388 98.3916 45.4933 86.546 45.4933 71.9881C45.4933 57.4302 57.3388 45.5846 71.8968 45.5846C86.4547 45.5846 98.3003 57.4302 98.3003 71.9881C98.3003 86.546 86.4595 98.3916 71.8968 98.3916Z" fill="#212121"/>
<path d="M71.8967 55.1858C62.6339 55.1858 55.0945 62.7228 55.0945 71.988C55.0945 81.2533 62.6339 88.7903 71.8967 88.7903C81.1596 88.7903 88.699 81.2533 88.699 71.988C88.699 62.7228 81.162 55.1858 71.8967 55.1858ZM71.8967 83.9896C65.279 83.9896 59.8951 78.6057 59.8951 71.988C59.8951 65.3703 65.279 59.9864 71.8967 59.9864C78.5144 59.9864 83.8983 65.3703 83.8983 71.988C83.8983 78.6057 78.5144 83.9896 71.8967 83.9896Z" fill="black"/>
<path d="M69.7244 35.0615C70.2501 35.736 71.0422 36.1224 71.8991 36.1224C72.756 36.1224 73.5505 35.7336 74.0738 35.0615C78.4111 29.5119 82.1028 21.9725 83.4734 15.8541C84.0255 13.3842 84.0423 11.0559 83.5262 8.9772L83.4326 8.60515C82.0188 3.37725 77.535 0 72.0023 0C71.9999 0 71.9951 0 71.9903 0C66.5392 0.00480064 61.9425 3.47326 60.56 8.61715L60.4783 8.93639C59.9551 11.0583 59.9695 13.3842 60.524 15.8445C61.5993 20.6524 64.6597 28.571 69.7244 35.0615ZM73.5049 32.1067L73.5025 32.1043C73.5049 32.1043 73.5049 32.1067 73.5049 32.1067ZM65.195 9.87492C66.2007 6.13282 69.4867 4.80304 71.9951 4.80064C71.9975 4.80064 71.9999 4.80064 72.0023 4.80064C74.5082 4.80064 77.7895 6.12562 78.8552 10.0837C79.2008 11.4759 79.1768 13.0649 78.788 14.8028C77.9071 18.7273 75.4899 24.6393 71.9039 29.8936C68.4834 24.8025 66.1167 18.8545 65.207 14.7956C64.8205 13.0649 64.7989 11.4783 65.195 9.87492Z" fill="black"/>
<path d="M74.2803 108.919C73.7547 108.247 72.965 107.858 72.1128 107.856C72.108 107.856 72.1056 107.856 72.1008 107.856C71.2511 107.856 70.459 108.238 69.9237 108.917C64.9959 115.22 61.6546 123.117 60.5265 128.148C59.9744 130.616 59.9576 132.944 60.4809 135.073L60.5625 135.395C61.9763 140.623 66.4625 144 71.9952 144C71.9976 144 72.0024 144 72.0048 144C77.4584 143.995 82.055 140.529 83.4376 135.383L83.5168 135.064C84.04 132.942 84.0256 130.618 83.4712 128.155C82.3934 123.333 79.3402 115.403 74.2803 108.919ZM70.4926 111.869C70.4926 111.869 70.4902 111.867 70.4878 111.867L70.4926 111.869ZM78.8049 134.125C77.8016 137.867 74.5132 139.195 72.0048 139.197C72.0024 139.197 72 139.197 71.9976 139.197C69.4917 139.197 66.2105 137.872 65.1423 133.916C64.7991 132.522 64.8231 130.933 65.2119 129.195C66.0952 125.256 68.5172 119.327 72.0936 114.082C75.5093 119.173 77.8784 125.133 78.7905 129.204C79.177 130.935 79.1986 132.519 78.8049 134.125Z" fill="black"/>
<path d="M135.388 60.5648L135.061 60.4784C132.934 59.9575 130.613 59.9743 128.151 60.524C123.271 61.6161 115.282 64.6813 108.826 69.7196C108.154 70.2429 107.767 71.0302 107.762 71.8823C107.757 72.7392 108.141 73.5361 108.821 74.0738C115.1 78.98 123.05 82.3309 128.143 83.4734C129.411 83.7591 130.64 83.9007 131.825 83.9007C132.949 83.9007 134.031 83.7735 135.068 83.519L135.392 83.435C140.625 82.0212 144.002 77.5302 143.997 71.9927C143.993 66.5368 140.524 61.9426 135.388 60.5648ZM134.159 78.7952L133.916 78.8576C132.514 79.2009 130.928 79.1769 129.195 78.7904C125.203 77.8951 119.231 75.4708 113.996 71.9063C119.077 68.505 125.078 66.1335 129.202 65.2094C130.937 64.8229 132.519 64.7989 134.123 65.1974C137.865 66.2007 139.194 69.4892 139.197 71.9975C139.202 74.5034 137.874 77.7895 134.159 78.7952Z" fill="black"/>
<path d="M36.0312 72.1104C36.0336 71.2559 35.6496 70.459 34.9727 69.9237C29.4015 65.5719 21.8981 61.8802 15.8541 60.5265C13.389 59.9696 11.0583 59.9576 8.9556 60.476L8.60515 60.5673C3.37245 61.981 -0.00479553 66.472 5.11123e-06 72.0096C0.00480575 77.4631 3.47327 82.0597 8.60995 83.4375L8.9364 83.5239C9.96853 83.776 11.0463 83.9056 12.1672 83.9056C13.3506 83.9056 14.5795 83.764 15.8445 83.4783C20.5947 82.415 28.4534 79.3666 34.9703 74.2803C35.6424 73.7522 36.0288 72.9625 36.0312 72.1104ZM14.7956 78.7905C13.0649 79.1793 11.4831 79.2033 9.87732 78.8025C6.13522 77.7992 4.80305 74.5107 4.80065 72.0024C4.79824 69.4964 6.12322 66.2104 10.0837 65.1423C10.7366 64.9814 11.4351 64.8998 12.1672 64.8998C13.0001 64.8998 13.8787 65.003 14.8028 65.2095C18.6769 66.0784 24.5553 68.4955 29.8096 72.096C24.4425 75.7325 18.5401 77.9504 14.7956 78.7905Z" fill="black"/>
<path d="M19.2602 35.5536C20.3932 37.4259 22.047 39.0581 24.1785 40.4071C29.0679 43.5059 37.337 47.0464 44.7948 47.9657H44.7996C44.9124 47.9801 45.0252 47.9873 45.1381 47.9873C45.8653 47.9873 46.5614 47.7017 47.0871 47.176C47.692 46.5735 47.9776 45.7382 47.8744 44.8885C46.9431 37.2891 43.3546 28.8303 40.4142 24.1857C39.058 22.047 37.4234 20.3908 35.568 19.2723L35.2583 19.0899C30.5609 16.3919 24.9994 17.1744 21.0844 21.0941C17.2319 24.9538 16.4326 30.6546 19.109 35.2944L19.2602 35.5536ZM24.4833 24.4858C25.6282 23.3384 27.3949 22.3519 29.464 22.3519C30.5945 22.3519 31.8139 22.6471 33.0692 23.3696C34.2982 24.1113 35.4048 25.2515 36.3577 26.7541C38.6716 30.4074 41.4272 36.665 42.6633 42.7426C36.7153 41.5016 30.4697 38.7077 26.7492 36.3506C25.2514 35.4024 24.1136 34.2983 23.2591 32.8821C21.3245 29.5264 22.7071 26.262 24.4833 24.4858Z" fill="black"/>
<path d="M124.735 108.447C123.602 106.574 121.951 104.942 119.819 103.593C115.091 100.595 106.56 96.9442 98.9988 96.0129H98.994C98.1515 95.9073 97.3138 96.1953 96.7089 96.8026C96.104 97.4051 95.8184 98.2404 95.9216 99.0901C96.8265 106.473 100.422 114.819 103.586 119.814C104.94 121.951 106.574 123.607 108.451 124.742L108.737 124.91C110.592 125.976 112.587 126.499 114.558 126.499C117.575 126.499 120.546 125.275 122.911 122.904C126.763 119.044 127.563 113.343 124.922 108.768L124.735 108.447ZM119.517 119.512C117.748 121.288 114.495 122.678 110.931 120.631C109.702 119.886 108.595 118.746 107.642 117.244C105.235 113.444 102.393 107.143 101.147 101.236C107.021 102.463 113.427 105.225 117.251 107.647C118.749 108.595 119.884 109.7 120.738 111.118C122.671 114.474 121.288 117.738 119.517 119.512Z" fill="black"/>
<path d="M98.6627 47.9848C98.7755 47.9848 98.8883 47.98 99.0011 47.9656C106.579 47.0366 115.102 43.4001 119.817 40.4117C121.953 39.0604 123.607 37.4257 124.785 35.4791L124.915 35.2583C127.613 30.5584 126.826 24.9945 122.908 21.0844C119.051 17.2319 113.353 16.4326 108.749 19.0873L108.449 19.2625C106.581 20.3931 104.947 22.0469 103.595 24.1784C100.434 29.171 96.836 37.5098 95.9263 44.8859L95.9239 44.8907C95.8231 45.7381 96.1088 46.571 96.7136 47.1734C97.2345 47.6991 97.9306 47.9848 98.6627 47.9848ZM107.647 26.7491C108.598 25.2489 109.702 24.1112 111.118 23.2591C112.268 22.5942 113.413 22.3229 114.486 22.3229C116.538 22.3229 118.345 23.3191 119.512 24.4808C121.286 26.2523 122.673 29.5119 120.63 33.0668C119.884 34.2981 118.746 35.4047 117.244 36.3552C113.432 38.7699 107.033 41.5231 101.149 42.7425C102.398 36.8401 105.244 30.544 107.647 26.7491Z" fill="black"/>
<path d="M44.7971 96.0103C37.3826 96.9176 29.1039 100.47 24.1856 103.586C22.0493 104.937 20.3931 106.574 19.2553 108.451L19.0873 108.739C16.3894 113.439 17.1743 119.003 21.094 122.913C23.4343 125.249 26.4443 126.461 29.4879 126.461C31.4658 126.461 33.4556 125.947 35.2799 124.896L35.5511 124.735C37.4186 123.604 39.0532 121.951 40.4046 119.819C43.3425 115.184 46.931 106.718 47.8696 99.0899L47.872 99.0851C47.9728 98.2378 47.6871 97.4049 47.0822 96.8024C46.4798 96.1951 45.6397 95.9047 44.7971 96.0103ZM36.3552 117.248C35.4047 118.749 34.3005 119.886 32.8844 120.738C29.5335 122.675 26.2667 121.288 24.4904 119.517C22.7166 117.745 21.3292 114.486 23.3719 110.931C24.1184 109.699 25.2561 108.593 26.7587 107.64C30.4984 105.271 36.7441 102.467 42.6585 101.231C41.4391 107.145 38.7243 113.506 36.3552 117.248Z" fill="black"/>
</svg>
